<svg width="350" height="112" viewBox="0 0 350 112" fill="none" xmlns="http://www.w3.org/2000/svg">
<rect width="350" height="112" fill="white"/>
<path d="M58.9621 54.2838C56.8084 54.1586 54.6817 54.8132 52.9712 56.1277V54.618H48.9453V80H53.4004V72.4114C54.691 73.7941 56.3498 74.1012 58.4398 74.1012C65.8753 74.1012 66.7047 68.8778 66.7047 64.2386C66.7047 58.1196 65.8133 54.3449 58.9621 54.2838ZM58.2557 70.1684C54.4459 70.1684 53.3704 69.0318 53.3704 64.2386C53.3704 59.4453 54.4479 58.2197 58.2547 58.2197C61.5733 58.2197 62.2796 59.7564 62.2796 64.2416C62.2516 68.6937 61.5423 70.1684 58.2547 70.1684H58.2557ZM77.4278 54.2838C74.3264 54.2838 71.9892 54.8371 70.3615 56.4348C68.6717 58.0356 68.3025 60.5208 68.3025 64.1775C68.3025 67.8343 68.6707 70.3224 70.3615 71.9202C72.0203 73.549 74.3254 74.0712 77.4278 74.0712C80.5003 74.0712 82.8664 73.518 84.4942 71.9202C86.184 70.3194 86.5532 67.8343 86.5532 64.1775C86.5532 60.5208 86.215 58.0326 84.4942 56.4348C82.8614 54.8361 80.4993 54.2838 77.4268 54.2838H77.4278ZM77.4278 70.1684C73.1258 70.1684 72.7576 68.5096 72.7576 64.1775C72.7576 59.8455 73.1578 58.1867 77.4278 58.1867C81.7299 58.1867 82.098 59.8455 82.098 64.1775C82.1281 68.5086 81.7289 70.1684 77.4268 70.1684H77.4278ZM130.397 54.2838C122.685 54.2838 121.579 58.6779 121.579 64.4226C121.579 70.0143 122.807 74.1012 130.52 74.1012C134.146 74.1012 138.939 73.2098 138.939 68.0484H134.637C134.606 70.1994 132.302 70.4495 130.673 70.4495C126.863 70.4495 126.034 69.1589 126.034 65.8713H139.188C139.153 59.1992 138.754 54.2838 130.397 54.2838ZM126.095 62.2726C126.095 59.7224 126.495 57.9406 130.397 57.9406C134.514 57.9406 134.76 59.5073 134.76 62.2726H126.095ZM150.398 54.2838C148.387 54.1722 146.41 54.8316 144.868 56.1277V54.618H141.027V73.7941H145.482V64.8528C145.482 61.5043 145.114 58.2167 149.937 58.2167C153.778 58.2167 153.439 59.9985 153.439 63.6853V73.7901H157.897V63.3161C157.834 59.1381 158.141 54.2838 150.398 54.2838ZM114.235 70.4755C112.084 70.4445 111.808 69.339 111.808 67.8943V58.4618H120.534V54.618H111.808V48.415H107.353V54.618H104.772V58.4588H107.353V67.8943C107.353 72.1963 109.903 74.0972 114.356 74.0972C118.166 74.0972 120.593 72.6536 120.593 68.0444H116.568C116.509 69.2769 116.232 70.5065 114.235 70.4755ZM95.4314 62.1796C93.4955 62.0565 92.2359 62.0565 92.3299 59.9055C92.3609 58.6459 92.6991 57.7545 96.5089 57.8465C99.0901 57.9386 99.9195 58.4608 99.9195 60.3357H104.005C104.005 55.7575 101.24 54.3449 96.4779 54.2828C91.3754 54.1908 87.9668 55.2663 87.9058 60.0286C87.7827 65.9314 92.2078 65.7743 96.4779 66.0194C98.6899 66.1425 100.012 66.1735 99.9495 68.4466C99.9185 69.8292 99.4583 70.6896 95.6475 70.5666C92.514 70.4745 91.9297 69.7062 91.9297 68.0474H87.8438C87.8438 72.7786 90.8552 74.0382 95.7095 74.1002C100.871 74.1923 104.314 72.9637 104.374 68.2314C104.435 62.0875 99.8565 62.4567 95.4324 62.1796H95.4314Z" fill="#E32D22"/>
<path d="M41.7548 54.6211C41.5325 57.3489 40.2918 59.8932 38.2795 61.7482C36.2672 63.6032 33.6305 64.633 30.8937 64.633C28.1568 64.633 25.5201 63.6032 23.5078 61.7482C21.4955 59.8932 20.2548 57.3489 20.0325 54.6211H0C0.228572 60.2373 2.62039 65.5474 6.67493 69.4403C10.7295 73.3332 16.1325 75.5071 21.7533 75.5071C27.3742 75.5071 32.7772 73.3332 36.8317 69.4403C40.8863 65.5474 43.2781 60.2373 43.5067 54.6211H41.7548Z" fill="#E32D22"/>
<path d="M20.0325 52.8703C20.2502 50.1433 21.4873 47.5984 23.4972 45.7425C25.5072 43.8867 28.1425 42.8561 30.8782 42.8561C33.6139 42.8561 36.2491 43.8867 38.2591 45.7425C40.269 47.5984 41.5061 50.1433 41.7238 52.8703H43.4746C43.2462 47.2583 40.8561 41.9522 36.8045 38.0622C32.753 34.1723 27.354 32 21.7373 32C16.1207 32 10.7217 34.1723 6.67013 38.0622C2.61858 41.9522 0.228486 47.2583 0 52.8703H20.0325Z" fill="#BFC0C4"/>
<rect x="181.896" y="32" width="1" height="60" fill="#D6D6D6"/>
<path d="M224.688 67.344C224.688 63.728 222.256 61.424 217.648 60.56C213.68 59.824 212.656 59.024 212.656 57.424C212.656 55.792 213.936 54.64 216.24 54.64C218.608 54.64 220.112 55.792 220.528 57.936L223.984 56.752C223.536 53.488 220.72 51.312 216.24 51.312C211.792 51.312 208.752 53.968 208.752 57.712C208.752 60.944 211.056 63.184 215.568 63.952C219.408 64.624 220.688 65.648 220.688 67.632C220.688 69.712 219.184 70.96 216.528 70.96C213.904 70.96 212.336 69.648 211.696 67.12L208.144 68.56C209.072 72.272 212.08 74.288 216.592 74.288C221.424 74.288 224.688 71.472 224.688 67.344ZM230.469 55.792C229.189 55.792 228.165 54.768 228.165 53.52C228.165 52.24 229.189 51.216 230.469 51.216C231.749 51.216 232.773 52.24 232.773 53.52C232.773 54.768 231.749 55.792 230.469 55.792ZM228.485 74V57.232H232.421V74H228.485ZM249.008 57.232V60.56C248.048 58.288 246.032 56.944 243.472 56.944C239.344 56.944 236.464 60.272 236.464 65.168C236.464 70.064 239.344 73.392 243.472 73.392C245.808 73.392 247.696 72.272 248.752 70.384V72.432C248.752 75.728 247.088 77.104 244.4 77.104C242.288 77.104 240.944 76.368 240.432 74.544L236.976 75.792C237.744 78.608 240.336 80.048 244.752 80.048C249.488 80.048 252.624 77.392 252.624 72.528V57.232H249.008ZM244.528 70.448C242.064 70.448 240.432 68.432 240.432 65.168C240.432 61.904 242.032 59.888 244.528 59.888C247.088 59.888 248.688 61.872 248.688 65.168C248.688 68.464 247.088 70.448 244.528 70.448ZM264.951 56.944C262.871 56.944 261.175 58.128 260.247 60.048V57.232H256.727V74H260.663V64.176C260.663 61.648 261.911 59.888 263.767 59.888C265.623 59.888 266.583 61.04 266.583 63.504V74H270.519V63.696C270.519 59.248 268.535 56.944 264.951 56.944ZM289.257 65.392C289.257 60.24 286.345 56.944 281.705 56.944C277.033 56.944 273.865 60.528 273.865 65.616C273.865 70.736 277.033 74.288 281.961 74.288C285.609 74.288 287.881 72.848 288.905 69.712L285.577 68.496C285.225 70.32 283.753 71.344 281.993 71.344C279.465 71.344 278.185 69.808 277.929 66.864H289.097C289.193 66.416 289.257 65.936 289.257 65.392ZM281.705 59.888C283.881 59.888 285.321 61.68 285.353 64.24H277.929C278.249 61.456 279.561 59.888 281.705 59.888ZM300.312 56.944C298.424 56.944 296.952 58.224 296.216 60.176V57.232H292.696V74H296.632V64.208C296.632 61.776 298.136 60.432 300.024 60.432C300.728 60.432 301.272 60.624 301.688 60.88L302.456 57.648C302.04 57.232 301.24 56.944 300.312 56.944ZM307.501 55.792C306.221 55.792 305.197 54.768 305.197 53.52C305.197 52.24 306.221 51.216 307.501 51.216C308.781 51.216 309.805 52.24 309.805 53.52C309.805 54.768 308.781 55.792 307.501 55.792ZM305.517 74V57.232H309.453V74H305.517ZM322.295 56.944C320.215 56.944 318.519 58.128 317.591 60.048V57.232H314.071V74H318.007V64.176C318.007 61.648 319.255 59.888 321.111 59.888C322.967 59.888 323.927 61.04 323.927 63.504V74H327.863V63.696C327.863 59.248 325.879 56.944 322.295 56.944ZM343.976 57.232V60.56C343.016 58.288 341 56.944 338.44 56.944C334.312 56.944 331.432 60.272 331.432 65.168C331.432 70.064 334.312 73.392 338.44 73.392C340.776 73.392 342.664 72.272 343.72 70.384V72.432C343.72 75.728 342.056 77.104 339.368 77.104C337.256 77.104 335.912 76.368 335.4 74.544L331.944 75.792C332.712 78.608 335.304 80.048 339.72 80.048C344.456 80.048 347.592 77.392 347.592 72.528V57.232H343.976ZM339.496 70.448C337.032 70.448 335.4 68.432 335.4 65.168C335.4 61.904 337 59.888 339.496 59.888C342.056 59.888 343.656 61.872 343.656 65.168C343.656 68.464 342.056 70.448 339.496 70.448Z" fill="#4A1011"/>
</svg>
